The Devils Rejects 2005 DVDRip Xvid BigPerm LKRG

Plot:

In Ruggsville, Texas, the police under the command of Sheriff John Quincy Wydell attack the house of the sadistic serial killers Firefly family (a.k.a. The Devil's Reject) and they arrest mother Firefly, but Otis B. Driftwood and Baby Firefly escape from the siege. Tiny is wandering nearby the house and also escapes. Otis and Baby call their patriarch, the mad clown Captain Spaulding and they schedule to reunite at an isolated motel in the desert. When Otis and Baby arrive, they kidnap two families of singers, using sadism and violence against the harmless persons. Meanwhile, Sheriff Wydell promises to capture and kill the runaways, seeking revenge for the death of his brother, the Deputy George Wydell. 

Cast:

Sid Haig.......................Captain Spaulding
Bill Moseley...................Otis
Sheri Moon Zombie..............Baby
William Forsythe...............Sheriff Wydell
Ken Foree......................Charlie Altamont
Matthew McGrory................Tiny
Leslie Easterbrook.............Mother Firefly
Geoffrey Lewis.................Roy Sullivan
Priscilla Barnes...............Gloria Sullivan
Dave Sheridan..................Officer Ray Dobson
Kate Norby.....................Wendy Banjo
Lew Temple.....................Adam Banjo
Danny Trejo....................Rondo
Dallas Page....................Billy Ray Snapper


General:

Complete name : The Devils Rejects 2005 DVDRip Xvid BigPerm LKRG\TDRLKRG.avi
Format : AVI
Format/Info : Audio Video Interleave
Format profile : OpenDML
File size : 1.13 GiB
Duration : 1h 50mn
Overall bit rate : 1 463 Kbps

Video:

ID : 0
Format : MPEG-4 Visual
Format profile : Advanced Simple@L5
Format settings, BVOP : Yes
Format settings, QPel : No
Format settings, GMC : No warppoints
Format settings, Matrix : Default (H.263)
Codec ID : XVID
Codec ID/Hint : XviD
Duration : 1h 50mn
Bit rate : 1 009 Kbps
Width : 700 pixels
Height : 392 pixels
Display aspect ratio : 16:9
Frame rate : 23.976 fps
Resolution : 8 bits
Colorimetry : 4:2:0
Scan type : Progressive
Bits/(Pixel*Frame) : 0.153
Stream size : 800 MiB (69%)
Writing library : XviD 1.2.1 (UTC 2008-12-04)

Audio
ID : 1
Format : AC-3
Format/Info : Audio Coding 3
Codec ID : 2000
Duration : 1h 50mn
Bit rate mode : Constant
Bit rate : 448 Kbps
Channel(s) : 6 channels
Channel positions : Front: L C R, Side: L R, LFE
Sampling rate : 48.0 KHz
Resolution : 16 bits
Video delay : 42ms
Stream size : 355 MiB (31%)
Alignment : Split accross interleaves
Language : English